<svg xmlns="http://www.w3.org/2000/svg" version="1.1" xmlns:xlink="http://www.w3.org/1999/xlink" xmlns:svgjs="http://svgjs.dev/svgjs" width="1000" height="1000" viewBox="0 0 1000 1000"><rect width="1000" height="1000" fill="#ffffff"></rect><g transform="matrix(0.7,0,0,0.7,149.57576881968788,434.05653484764616)"><svg viewBox="0 0 396 75" data-background-color="#ffffff" preserveAspectRatio="xMidYMid meet" height="189" width="1000" xmlns="http://www.w3.org/2000/svg" xmlns:xlink="http://www.w3.org/1999/xlink"><g id="tight-bounds" transform="matrix(1,0,0,1,0.23999370126571762,-0.11708324696493833)"><svg viewBox="0 0 395.5199999999999 75.23416649392988" height="75.23416649392988" width="395.5199999999999"><g><svg viewBox="0 0 395.52000000000004 75.23416649392989" height="75.23416649392988" width="395.5199999999999"><g><svg viewBox="0 0 395.52000000000004 75.23416649392989" height="75.23416649392989" width="395.52000000000004"><g><svg viewBox="0 0 395.52000000000004 75.23416649392989" height="75.23416649392989" width="395.52000000000004"><g><svg viewBox="0 0 395.52000000000004 40.57771444856084" height="40.57771444856084" width="395.52000000000004"><g transform="matrix(1,0,0,1,0,0)"><svg width="395.52000000000004" viewBox="1.600000023841858 -35.5 350.8699951171875 36" height="40.57771444856084" data-palette-color="#636365"><path d="M10.85 0.5L10.85 0.5Q8.25 0.5 6.15-0.53 4.05-1.55 2.83-3.28 1.6-5 1.6-7.15L1.6-7.15Q1.6-10.65 4.45-12.73 7.3-14.8 11.9-15.5L11.9-15.5 18.75-16.5 18.75-17.55Q18.75-19.65 17.7-20.8 16.65-21.95 14.1-21.95L14.1-21.95Q12.3-21.95 11.18-21.23 10.05-20.5 9.5-19.3L9.5-19.3Q9.1-18.65 8.35-18.65L8.35-18.65 4.4-18.65Q3.85-18.65 3.58-18.95 3.3-19.25 3.3-19.75L3.3-19.75Q3.35-20.55 3.98-21.7 4.6-22.85 5.88-23.93 7.15-25 9.2-25.75 11.25-26.5 14.15-26.5L14.15-26.5Q17.3-26.5 19.48-25.73 21.65-24.95 22.95-23.65 24.25-22.35 24.85-20.6 25.45-18.85 25.45-16.9L25.45-16.9 25.45-1.2Q25.45-0.7 25.1-0.35 24.75 0 24.25 0L24.25 0 20.2 0Q19.65 0 19.33-0.35 19-0.7 19-1.2L19-1.2 19-3.15Q18.35-2.25 17.25-1.4 16.15-0.55 14.58-0.03 13 0.5 10.85 0.5ZM12.55-4.25L12.55-4.25Q14.3-4.25 15.73-5 17.15-5.75 17.98-7.33 18.8-8.9 18.8-11.3L18.8-11.3 18.8-12.35 13.8-11.55Q10.85-11.1 9.4-10.1 7.95-9.1 7.95-7.65L7.95-7.65Q7.95-6.55 8.63-5.78 9.3-5 10.35-4.63 11.4-4.25 12.55-4.25ZM37.4 0L33.05 0Q32.55 0 32.2-0.35 31.85-0.7 31.85-1.2L31.85-1.2 31.85-24.75Q31.85-25.3 32.2-25.65 32.55-26 33.05-26L33.05-26 37.1-26Q37.6-26 37.97-25.65 38.35-25.3 38.35-24.75L38.35-24.75 38.35-22.7Q39.5-24.3 41.32-25.15 43.15-26 45.55-26L45.55-26 47.6-26Q48.15-26 48.47-25.65 48.8-25.3 48.8-24.8L48.8-24.8 48.8-21.2Q48.8-20.7 48.47-20.35 48.15-20 47.6-20L47.6-20 43.7-20Q41.3-20 39.97-18.68 38.65-17.35 38.65-14.95L38.65-14.95 38.65-1.2Q38.65-0.7 38.3-0.35 37.95 0 37.4 0L37.4 0ZM58 0L53.95 0Q53.45 0 53.1-0.35 52.75-0.7 52.75-1.2L52.75-1.2 52.75-34.3Q52.75-34.8 53.1-35.15 53.45-35.5 53.95-35.5L53.95-35.5 58-35.5Q58.55-35.5 58.87-35.15 59.2-34.8 59.2-34.3L59.2-34.3 59.2-17.2 67.59-25.15Q68.09-25.55 68.42-25.78 68.75-26 69.45-26L69.45-26 74.09-26Q74.59-26 74.9-25.7 75.2-25.4 75.2-24.9L75.2-24.9Q75.2-24.7 75.09-24.45 75-24.2 74.7-24L74.7-24 64.4-14.35 75.95-1.95Q76.45-1.45 76.45-1.1L76.45-1.1Q76.45-0.6 76.12-0.3 75.8 0 75.34 0L75.34 0 70.59 0Q69.84 0 69.52-0.23 69.2-0.45 68.75-0.85L68.75-0.85 59.2-10.9 59.2-1.2Q59.2-0.7 58.87-0.35 58.55 0 58 0L58 0ZM94.44 0L81.99 0Q81.49 0 81.14-0.35 80.79-0.7 80.79-1.2L80.79-1.2 80.79-33.75Q80.79-34.3 81.14-34.65 81.49-35 81.99-35L81.99-35 94.19-35Q99.24-35 102.52-33.45 105.79-31.9 107.47-28.85 109.14-25.8 109.19-21.4L109.19-21.4Q109.29-19.2 109.29-17.5 109.29-15.8 109.19-13.65L109.19-13.65Q109.09-9 107.49-5.98 105.89-2.95 102.67-1.48 99.44 0 94.44 0L94.44 0ZM87.74-29.25L87.74-5.75 94.19-5.75Q96.99-5.75 98.74-6.55 100.49-7.35 101.32-9.13 102.14-10.9 102.19-13.8L102.19-13.8Q102.24-15.3 102.27-16.43 102.29-17.55 102.27-18.68 102.24-19.8 102.19-21.25L102.19-21.25Q102.09-25.35 100.14-27.3 98.19-29.25 93.94-29.25L93.94-29.25 87.74-29.25ZM139.54 0L117.14 0Q116.64 0 116.29-0.35 115.94-0.7 115.94-1.2L115.94-1.2 115.94-33.75Q115.94-34.3 116.29-34.65 116.64-35 117.14-35L117.14-35 139.14-35Q139.69-35 140.04-34.65 140.39-34.3 140.39-33.75L140.39-33.75 140.39-30.45Q140.39-29.95 140.04-29.6 139.69-29.25 139.14-29.25L139.14-29.25 122.69-29.25 122.69-20.4 138.04-20.4Q138.59-20.4 138.94-20.08 139.29-19.75 139.29-19.2L139.29-19.2 139.29-16.1Q139.29-15.55 138.94-15.23 138.59-14.9 138.04-14.9L138.04-14.9 122.69-14.9 122.69-5.75 139.54-5.75Q140.09-5.75 140.44-5.4 140.79-5.05 140.79-4.5L140.79-4.5 140.79-1.2Q140.79-0.7 140.44-0.35 140.09 0 139.54 0L139.54 0ZM149.24 0L144.89 0Q144.49 0 144.16-0.3 143.84-0.6 143.84-1.05L143.84-1.05Q143.84-1.25 143.94-1.5L143.94-1.5 155.99-33.75Q156.14-34.25 156.56-34.63 156.99-35 157.74-35L157.74-35 163.19-35Q163.94-35 164.34-34.63 164.74-34.25 164.94-33.75L164.94-33.75 176.99-1.5Q177.04-1.25 177.04-1.05L177.04-1.05Q177.04-0.6 176.74-0.3 176.44 0 176.04 0L176.04 0 171.69 0Q170.99 0 170.66-0.33 170.34-0.65 170.24-0.95L170.24-0.95 167.89-7.05 153.04-7.05 150.69-0.95Q150.59-0.65 150.26-0.33 149.94 0 149.24 0L149.24 0ZM160.44-28.25L154.79-12.8 166.14-12.8 160.44-28.25ZM204.59 0L182.89 0Q182.39 0 182.04-0.35 181.69-0.7 181.69-1.2L181.69-1.2 181.69-33.8Q181.69-34.3 182.04-34.65 182.39-35 182.89-35L182.89-35 187.54-35Q188.04-35 188.39-34.65 188.74-34.3 188.74-33.8L188.74-33.8 188.74-5.95 204.59-5.95Q205.14-5.95 205.49-5.6 205.84-5.25 205.84-4.7L205.84-4.7 205.84-1.2Q205.84-0.7 205.49-0.35 205.14 0 204.59 0L204.59 0ZM222.83 0.5L222.83 0.5Q218.18 0.5 215.06-0.88 211.93-2.25 210.31-4.48 208.68-6.7 208.58-9.15L208.58-9.15Q208.58-9.6 208.88-9.9 209.18-10.2 209.63-10.2L209.63-10.2 214.08-10.2Q214.73-10.2 215.06-9.93 215.38-9.65 215.63-9.25L215.63-9.25Q215.93-8.3 216.78-7.38 217.63-6.45 219.11-5.85 220.58-5.25 222.83-5.25L222.83-5.25Q226.43-5.25 228.21-6.45 229.98-7.65 229.98-9.7L229.98-9.7Q229.98-11.15 229.03-12.03 228.08-12.9 226.11-13.63 224.13-14.35 220.88-15.15L220.88-15.15Q217.13-16.05 214.61-17.32 212.08-18.6 210.81-20.55 209.53-22.5 209.53-25.5L209.53-25.5Q209.53-28.4 211.11-30.65 212.68-32.9 215.61-34.2 218.53-35.5 222.58-35.5L222.58-35.5Q225.83-35.5 228.33-34.63 230.83-33.75 232.48-32.33 234.13-30.9 235.01-29.28 235.88-27.65 235.93-26.1L235.93-26.1Q235.93-25.7 235.66-25.38 235.38-25.05 234.88-25.05L234.88-25.05 230.23-25.05Q229.83-25.05 229.43-25.25 229.03-25.45 228.78-26L228.78-26Q228.48-27.55 226.83-28.65 225.18-29.75 222.58-29.75L222.58-29.75Q219.88-29.75 218.23-28.75 216.58-27.75 216.58-25.65L216.58-25.65Q216.58-24.25 217.41-23.33 218.23-22.4 220.06-21.7 221.88-21 224.88-20.2L224.88-20.2Q229.13-19.25 231.83-18 234.53-16.75 235.78-14.83 237.03-12.9 237.03-9.95L237.03-9.95Q237.03-6.65 235.26-4.33 233.48-2 230.28-0.75 227.08 0.5 222.83 0.5ZM248.08 0L243.08 0Q242.58 0 242.23-0.35 241.88-0.7 241.88-1.2L241.88-1.2 241.88-6.15Q241.88-6.7 242.23-7.05 242.58-7.4 243.08-7.4L243.08-7.4 248.08-7.4Q248.58-7.4 248.93-7.05 249.28-6.7 249.28-6.15L249.28-6.15 249.28-1.2Q249.28-0.7 248.93-0.35 248.58 0 248.08 0L248.08 0ZM266.83 0.5L266.83 0.5Q263.23 0.5 260.5-0.85 257.78-2.2 256.25-4.78 254.73-7.35 254.58-11L254.58-11Q254.53-11.75 254.53-12.98 254.53-14.2 254.58-15L254.58-15Q254.73-18.65 256.25-21.23 257.78-23.8 260.5-25.15 263.23-26.5 266.83-26.5L266.83-26.5Q270.03-26.5 272.28-25.63 274.53-24.75 275.98-23.38 277.43-22 278.15-20.53 278.88-19.05 278.93-17.85L278.93-17.85Q278.98-17.3 278.6-16.98 278.23-16.65 277.73-16.65L277.73-16.65 273.33-16.65Q272.83-16.65 272.55-16.9 272.28-17.15 272.03-17.65L272.03-17.65Q271.28-19.65 270.05-20.48 268.83-21.3 266.93-21.3L266.93-21.3Q264.43-21.3 262.95-19.73 261.48-18.15 261.38-14.75L261.38-14.75Q261.28-12.85 261.38-11.25L261.38-11.25Q261.48-7.8 262.95-6.25 264.43-4.7 266.93-4.7L266.93-4.7Q268.88-4.7 270.08-5.53 271.28-6.35 272.03-8.35L272.03-8.35Q272.28-8.85 272.55-9.1 272.83-9.35 273.33-9.35L273.33-9.35 277.73-9.35Q278.23-9.35 278.6-9.03 278.98-8.7 278.93-8.15L278.93-8.15Q278.88-7.25 278.45-6.13 278.03-5 277.1-3.83 276.18-2.65 274.78-1.68 273.38-0.7 271.4-0.1 269.43 0.5 266.83 0.5ZM295.63 0.5L295.63 0.5Q291.63 0.5 288.9-0.9 286.18-2.3 284.75-4.85 283.33-7.4 283.13-10.8L283.13-10.8Q283.08-11.7 283.08-13 283.08-14.3 283.13-15.2L283.13-15.2Q283.33-18.65 284.8-21.18 286.28-23.7 289-25.1 291.73-26.5 295.63-26.5L295.63-26.5Q299.53-26.5 302.25-25.1 304.98-23.7 306.45-21.18 307.93-18.65 308.13-15.2L308.13-15.2Q308.18-14.3 308.18-13 308.18-11.7 308.13-10.8L308.13-10.8Q307.93-7.4 306.5-4.85 305.08-2.3 302.35-0.9 299.63 0.5 295.63 0.5ZM295.63-4.45L295.63-4.45Q298.28-4.45 299.73-6.13 301.18-7.8 301.33-11.05L301.33-11.05Q301.38-11.8 301.38-13 301.38-14.2 301.33-14.95L301.33-14.95Q301.18-18.2 299.73-19.88 298.28-21.55 295.63-21.55L295.63-21.55Q292.98-21.55 291.53-19.88 290.08-18.2 289.93-14.95L289.93-14.95Q289.88-14.2 289.88-13 289.88-11.8 289.93-11.05L289.93-11.05Q290.08-7.8 291.53-6.13 292.98-4.45 295.63-4.45ZM319.12 0L314.92 0Q314.42 0 314.07-0.35 313.72-0.7 313.72-1.2L313.72-1.2 313.72-24.8Q313.72-25.3 314.07-25.65 314.42-26 314.92-26L314.92-26 318.82-26Q319.32-26 319.67-25.65 320.02-25.3 320.02-24.8L320.02-24.8 320.02-23.1Q321.07-24.5 322.85-25.48 324.62-26.45 327.07-26.5L327.07-26.5Q332.77-26.6 335.02-22.05L335.02-22.05Q336.17-24.05 338.35-25.28 340.52-26.5 343.17-26.5L343.17-26.5Q345.77-26.5 347.9-25.3 350.02-24.1 351.25-21.68 352.47-19.25 352.47-15.55L352.47-15.55 352.47-1.2Q352.47-0.7 352.12-0.35 351.77 0 351.27 0L351.27 0 347.17 0Q346.67 0 346.32-0.35 345.97-0.7 345.97-1.2L345.97-1.2 345.97-15.15Q345.97-17.4 345.32-18.73 344.67-20.05 343.57-20.6 342.47-21.15 341.12-21.15L341.12-21.15Q340.02-21.15 338.92-20.6 337.82-20.05 337.12-18.73 336.42-17.4 336.42-15.15L336.42-15.15 336.42-1.2Q336.42-0.7 336.07-0.35 335.72 0 335.22 0L335.22 0 331.12 0Q330.62 0 330.27-0.35 329.92-0.7 329.92-1.2L329.92-1.2 329.92-15.15Q329.92-17.4 329.22-18.73 328.52-20.05 327.42-20.6 326.32-21.15 325.07-21.15L325.07-21.15Q323.92-21.15 322.82-20.58 321.72-20 321.02-18.7 320.32-17.4 320.32-15.15L320.32-15.15 320.32-1.2Q320.32-0.7 319.97-0.35 319.62 0 319.12 0L319.12 0Z" opacity="1" transform="matrix(1,0,0,1,0,0)" fill="#000000" class="undefined-text-0" data-fill-palette-color="primary" id="text-0"></path></svg></g></svg></g><g transform="matrix(1,0,0,1,0,50.15713896471929)"><svg viewBox="0 0 395.52000000000004 25.077027529210604" height="25.077027529210604" width="395.52000000000004"><g transform="matrix(1,0,0,1,0,0)"><svg width="395.52000000000004" viewBox="2.1500000953674316 -37.75 607.22998046875 38.5" height="25.077027529210604" data-palette-color="#89939e"><path d="M18-35.3Q21.4-35.3 24.03-34.27 26.65-33.25 29-31.25L29-31.25 25.45-27.55Q23.6-29 21.98-29.65 20.35-30.3 18.2-30.3L18.2-30.3Q14.2-30.3 11.65-27.1 9.1-23.9 9.1-17.3L9.1-17.3Q9.1-10.4 11.13-7.35 13.15-4.3 17.3-4.3L17.3-4.3Q20.45-4.3 22.8-5.65L22.8-5.65 22.8-14.65 17.6-14.65 16.9-19.55 29.3-19.55 29.3-2.65Q23.7 0.75 17.4 0.75L17.4 0.75Q10 0.75 6.08-3.85 2.15-8.45 2.15-17.3L2.15-17.3Q2.15-22.95 4.28-27.03 6.4-31.1 10-33.2 13.6-35.3 18-35.3L18-35.3ZM69.03-13.85Q69.03-13.35 68.88-11.25L68.88-11.25 52.28-11.25Q52.58-7.4 54.28-5.75 55.98-4.1 58.78-4.1L58.78-4.1Q60.53-4.1 62.08-4.67 63.63-5.25 65.38-6.45L65.38-6.45 68.03-2.8Q63.63 0.75 58.23 0.75L58.23 0.75Q52.18 0.75 48.9-2.95 45.63-6.65 45.63-13.05L45.63-13.05Q45.63-17.1 47.03-20.33 48.43-23.55 51.08-25.38 53.73-27.2 57.38-27.2L57.38-27.2Q62.93-27.2 65.98-23.68 69.03-20.15 69.03-13.85L69.03-13.85ZM62.68-15.4L62.68-15.7Q62.68-22.65 57.53-22.65L57.53-22.65Q55.18-22.65 53.85-20.93 52.53-19.2 52.28-15.4L52.28-15.4 62.68-15.4ZM99.26-5.35L101.51-1.25Q100.11-0.25 98.38 0.25 96.66 0.75 94.86 0.75L94.86 0.75Q90.96 0.7 88.93-1.48 86.91-3.65 86.91-7.9L86.91-7.9 86.91-21.85 82.76-21.85 82.76-26.45 86.91-26.45 86.91-32.3 93.31-33.05 93.31-26.45 99.46-26.45 98.81-21.85 93.31-21.85 93.31-8.05Q93.31-6.1 93.98-5.25 94.66-4.4 96.11-4.4L96.11-4.4Q97.56-4.4 99.26-5.35L99.26-5.35ZM153.66-5.35L155.91-1.25Q154.51-0.25 152.79 0.25 151.06 0.75 149.26 0.75L149.26 0.75Q145.36 0.7 143.34-1.48 141.31-3.65 141.31-7.9L141.31-7.9 141.31-21.85 137.16-21.85 137.16-26.45 141.31-26.45 141.31-32.3 147.71-33.05 147.71-26.45 153.86-26.45 153.21-21.85 147.71-21.85 147.71-8.05Q147.71-6.1 148.39-5.25 149.06-4.4 150.51-4.4L150.51-4.4Q151.96-4.4 153.66-5.35L153.66-5.35ZM185.19-27.2Q188.69-27.2 190.69-25.05 192.69-22.9 192.69-19.15L192.69-19.15 192.69 0 186.29 0 186.29-18.15Q186.29-20.5 185.47-21.45 184.64-22.4 183.04-22.4L183.04-22.4Q181.44-22.4 180.09-21.38 178.74-20.35 177.49-18.45L177.49-18.45 177.49 0 171.09 0 171.09-37 177.49-37.65 177.49-23.3Q180.69-27.2 185.19-27.2L185.19-27.2ZM233.42-13.85Q233.42-13.35 233.27-11.25L233.27-11.25 216.67-11.25Q216.97-7.4 218.67-5.75 220.37-4.1 223.17-4.1L223.17-4.1Q224.92-4.1 226.47-4.67 228.02-5.25 229.77-6.45L229.77-6.45 232.42-2.8Q228.02 0.75 222.62 0.75L222.62 0.75Q216.57 0.75 213.29-2.95 210.02-6.65 210.02-13.05L210.02-13.05Q210.02-17.1 211.42-20.33 212.82-23.55 215.47-25.38 218.12-27.2 221.77-27.2L221.77-27.2Q227.32-27.2 230.37-23.68 233.42-20.15 233.42-13.85L233.42-13.85ZM227.07-15.4L227.07-15.7Q227.07-22.65 221.92-22.65L221.92-22.65Q219.57-22.65 218.24-20.93 216.92-19.2 216.67-15.4L216.67-15.4 227.07-15.4ZM288.53-27.2Q293.13-27.2 295.73-23.53 298.33-19.85 298.33-13.25L298.33-13.25Q298.33-9.15 297.05-5.98 295.78-2.8 293.43-1.03 291.08 0.75 287.88 0.75L287.88 0.75Q285.73 0.75 283.95-0.15 282.18-1.05 280.88-2.7L280.88-2.7 280.48 0 274.83 0 274.83-37.05 281.23-37.75 281.23-23.45Q282.53-25.25 284.4-26.23 286.28-27.2 288.53-27.2L288.53-27.2ZM286.13-4.05Q288.73-4.05 290.18-6.28 291.63-8.5 291.63-13.25L291.63-13.25Q291.63-18.25 290.28-20.33 288.93-22.4 286.48-22.4L286.48-22.4Q283.43-22.4 281.23-18.8L281.23-18.8 281.23-7.1Q282.08-5.65 283.35-4.85 284.63-4.05 286.13-4.05L286.13-4.05ZM337.9-13.85Q337.9-13.35 337.75-11.25L337.75-11.25 321.15-11.25Q321.45-7.4 323.15-5.75 324.85-4.1 327.65-4.1L327.65-4.1Q329.4-4.1 330.95-4.67 332.5-5.25 334.25-6.45L334.25-6.45 336.9-2.8Q332.5 0.75 327.1 0.75L327.1 0.75Q321.05 0.75 317.78-2.95 314.5-6.65 314.5-13.05L314.5-13.05Q314.5-17.1 315.9-20.33 317.3-23.55 319.95-25.38 322.6-27.2 326.25-27.2L326.25-27.2Q331.8-27.2 334.85-23.68 337.9-20.15 337.9-13.85L337.9-13.85ZM331.55-15.4L331.55-15.7Q331.55-22.65 326.4-22.65L326.4-22.65Q324.05-22.65 322.73-20.93 321.4-19.2 321.15-15.4L321.15-15.4 331.55-15.4ZM363.58-27.2Q368.93-27.2 372.98-24.05L372.98-24.05 370.48-20.3Q367.08-22.45 363.83-22.45L363.83-22.45Q361.93-22.45 360.88-21.73 359.83-21 359.83-19.8L359.83-19.8Q359.83-18.9 360.28-18.3 360.73-17.7 361.91-17.18 363.08-16.65 365.38-16L365.38-16Q369.68-14.85 371.76-12.95 373.83-11.05 373.83-7.65L373.83-7.65Q373.83-3.7 370.63-1.48 367.43 0.75 362.68 0.75L362.68 0.75Q359.43 0.75 356.76-0.25 354.08-1.25 352.13-3L352.13-3 355.33-6.6Q358.78-4 362.53-4L362.53-4Q364.68-4 365.96-4.85 367.23-5.7 367.23-7.2L367.23-7.2Q367.23-8.35 366.76-9.03 366.28-9.7 365.06-10.23 363.83-10.75 361.23-11.5L361.23-11.5Q357.18-12.6 355.28-14.58 353.38-16.55 353.38-19.5L353.38-19.5Q353.38-21.7 354.66-23.45 355.93-25.2 358.26-26.2 360.58-27.2 363.58-27.2L363.58-27.2ZM403.51-5.35L405.76-1.25Q404.36-0.25 402.64 0.25 400.91 0.75 399.11 0.75L399.11 0.75Q395.21 0.7 393.19-1.48 391.16-3.65 391.16-7.9L391.16-7.9 391.16-21.85 387.01-21.85 387.01-26.45 391.16-26.45 391.16-32.3 397.56-33.05 397.56-26.45 403.71-26.45 403.06-21.85 397.56-21.85 397.56-8.05Q397.56-6.1 398.24-5.25 398.91-4.4 400.36-4.4L400.36-4.4Q401.81-4.4 403.51-5.35L403.51-5.35ZM460.87-37.75L467.27-37.05 467.27 0 461.62 0 461.17-3.35Q459.92-1.45 457.99-0.35 456.07 0.75 453.62 0.75L453.62 0.75Q448.77 0.75 446.17-3 443.57-6.75 443.57-13.2L443.57-13.2Q443.57-17.25 444.87-20.43 446.17-23.6 448.59-25.4 451.02-27.2 454.22-27.2L454.22-27.2Q458.02-27.2 460.87-24.35L460.87-24.35 460.87-37.75ZM455.42-4.1Q457.12-4.1 458.42-4.93 459.72-5.75 460.87-7.5L460.87-7.5 460.87-19.6Q459.72-21 458.54-21.7 457.37-22.4 455.82-22.4L455.82-22.4Q453.27-22.4 451.79-20.13 450.32-17.85 450.32-13.25L450.32-13.25Q450.32-8.35 451.62-6.23 452.92-4.1 455.42-4.1L455.42-4.1ZM508.25-13.85Q508.25-13.35 508.1-11.25L508.1-11.25 491.5-11.25Q491.8-7.4 493.5-5.75 495.2-4.1 498-4.1L498-4.1Q499.75-4.1 501.3-4.67 502.85-5.25 504.6-6.45L504.6-6.45 507.25-2.8Q502.85 0.75 497.45 0.75L497.45 0.75Q491.4 0.75 488.12-2.95 484.85-6.65 484.85-13.05L484.85-13.05Q484.85-17.1 486.25-20.33 487.65-23.55 490.3-25.38 492.95-27.2 496.6-27.2L496.6-27.2Q502.15-27.2 505.2-23.68 508.25-20.15 508.25-13.85L508.25-13.85ZM501.9-15.4L501.9-15.7Q501.9-22.65 496.75-22.65L496.75-22.65Q494.4-22.65 493.07-20.93 491.75-19.2 491.5-15.4L491.5-15.4 501.9-15.4ZM545.12-7Q545.12-5.45 545.6-4.73 546.07-4 547.12-3.6L547.12-3.6 545.77 0.65Q543.52 0.45 542.1-0.45 540.67-1.35 539.92-3.2L539.92-3.2Q538.57-1.2 536.55-0.23 534.52 0.75 532.02 0.75L532.02 0.75Q528.07 0.75 525.77-1.5 523.47-3.75 523.47-7.4L523.47-7.4Q523.47-11.7 526.6-13.98 529.72-16.25 535.52-16.25L535.52-16.25 538.82-16.25 538.82-17.75Q538.82-20.3 537.65-21.33 536.47-22.35 533.87-22.35L533.87-22.35Q530.97-22.35 526.87-20.95L526.87-20.95 525.37-25.3Q530.32-27.2 534.97-27.2L534.97-27.2Q545.12-27.2 545.12-18.1L545.12-18.1 545.12-7ZM533.72-3.9Q536.97-3.9 538.82-7.15L538.82-7.15 538.82-12.5 536.17-12.5Q529.97-12.5 529.97-7.9L529.97-7.9Q529.97-6 530.92-4.95 531.87-3.9 533.72-3.9L533.72-3.9ZM570.7 0.75Q567.65 0.75 565.93-1.03 564.2-2.8 564.2-6.05L564.2-6.05 564.2-37.05 570.6-37.75 570.6-6.25Q570.6-4.4 572.1-4.4L572.1-4.4Q572.85-4.4 573.6-4.65L573.6-4.65 574.95-0.15Q572.95 0.75 570.7 0.75L570.7 0.75ZM599.13-27.2Q604.48-27.2 608.53-24.05L608.53-24.05 606.03-20.3Q602.63-22.45 599.38-22.45L599.38-22.45Q597.48-22.45 596.43-21.73 595.38-21 595.38-19.8L595.38-19.8Q595.38-18.9 595.83-18.3 596.28-17.7 597.45-17.18 598.63-16.65 600.93-16L600.93-16Q605.23-14.85 607.3-12.95 609.38-11.05 609.38-7.65L609.38-7.65Q609.38-3.7 606.18-1.48 602.98 0.75 598.23 0.75L598.23 0.75Q594.98 0.75 592.3-0.25 589.63-1.25 587.68-3L587.68-3 590.88-6.6Q594.33-4 598.08-4L598.08-4Q600.23-4 601.5-4.85 602.78-5.7 602.78-7.2L602.78-7.2Q602.78-8.35 602.3-9.03 601.83-9.7 600.6-10.23 599.38-10.75 596.78-11.5L596.78-11.5Q592.73-12.6 590.83-14.58 588.93-16.55 588.93-19.5L588.93-19.5Q588.93-21.7 590.2-23.45 591.48-25.2 593.8-26.2 596.13-27.2 599.13-27.2L599.13-27.2Z" opacity="1" transform="matrix(1,0,0,1,0,0)" fill="#000000" class="undefined-text-1" data-fill-palette-color="secondary" id="text-1"></path></svg></g></svg></g></svg></g></svg></g><g></g></svg></g><defs></defs></svg><rect width="395.5199999999999" height="75.23416649392988" fill="none" stroke="none" visibility="hidden"></rect></g></svg></g></svg>